<?xml version="1.0" encoding="UTF-8"?>
<svg version="1.1" xmlns="http://www.w3.org/2000/svg" width="597" height="207">
<path d="M0 0 C4.05006141 4.25775687 5.388974 7.19942733 5.31045532 13.11599731 C4.63367258 19.40303161 2.42836243 25.40129875 0.51171875 31.40234375 C0.04695129 32.88974876 -0.41666665 34.37751339 -0.87919617 35.86561584 C-2.09491283 39.76643078 -3.32570396 43.6623223 -4.55993652 47.55731201 C-5.80599714 51.49831978 -7.03832956 55.44361071 -8.27148438 59.38867188 C-9.66277324 63.83722224 -11.05539406 68.28531572 -12.45832825 72.73020935 C-14.69120399 79.80495866 -16.8998329 86.88454205 -19 94 C-17.8553125 93.505 -17.8553125 93.505 -16.6875 93 C-14 92 -14 92 -11 92 C-9.83950641 95.86831198 -9.85704832 98.37993698 -11.5 102 C-14.8564922 108.01179938 -19.98952083 112.40099118 -26.57421875 114.5234375 C-35.38912812 116.25519103 -43.13976059 115.79236928 -51.01171875 111.38671875 C-52.90373457 110.06713993 -54.43784734 108.69109224 -56 107 C-58.49370127 108.15093905 -60.60875485 109.42348164 -62.875 111 C-69.85922039 115.46990105 -76.90132935 115.90514554 -85 115 C-93.06624651 112.59800139 -98.97335858 107.41668298 -103.05859375 100.10546875 C-108.7596415 87.58498588 -106.07250898 73.33007306 -101.93359375 60.76171875 C-99.29506671 53.90851486 -95.87756672 48.46750999 -91 43 C-90.45472656 42.36191406 -89.90945312 41.72382812 -89.34765625 41.06640625 C-83.70412968 34.89172423 -75.81540796 30.31653005 -67.375 29.76171875 C-58.47752961 29.54114563 -51.17958782 30.04270481 -43 34 C-42.10461883 31.4430558 -41.23365767 28.88176475 -40.375 26.3125 C-39.99214844 25.2306543 -39.99214844 25.2306543 -39.6015625 24.12695312 C-38.45999567 20.65468736 -37.82549767 18.68430494 -38.74609375 15.07421875 C-39.89274903 12.94634707 -39.89274903 12.94634707 -41.6875 11.5 C-43 10 -43 10 -43 7.5625 C-41.660829 4.13087431 -40.03976641 3.07145373 -37 1 C-34.45423413 0.08757949 -32.11201672 -0.6393783 -29.5 -1.25 C-28.448125 -1.50148804 -28.448125 -1.50148804 -27.375 -1.75805664 C-18.02688644 -3.84000177 -8.67303132 -4.57305288 0 0 Z M-56 47.6875 C-65.05422003 56.36248569 -69.08639295 72.52027625 -69.375 84.75 C-69.31781549 88.02095418 -68.60495661 90.14959705 -67 93 C-64.6704053 93.50241322 -64.6704053 93.50241322 -62 93 C-58.4583413 88.56037062 -56.79979083 84.07971046 -55.203125 78.6796875 C-54.84537994 77.50806564 -54.84537994 77.50806564 -54.48040771 76.31277466 C-53.98171678 74.67202449 -53.4878295 73.02980731 -52.99853516 71.38623047 C-52.24917245 68.87222369 -51.48325358 66.36371144 -50.71484375 63.85546875 C-50.23078977 62.25550482 -49.74768364 60.65525375 -49.265625 59.0546875 C-49.03756165 58.30669891 -48.80949829 57.55871033 -48.57452393 56.78805542 C-47.55610883 53.34411455 -47 50.62551428 -47 47 C-50.85549784 45.80663162 -52.42792697 45.67820892 -56 47.6875 Z " fill="#8498DA" transform="translate(262,45)"/>
<path d="M0 0 C13.71613014 -0.39661099 27.19072159 2.04011462 37.58203125 11.4609375 C43.5596083 18.06212946 45.41532041 26.74750587 44.9921875 35.40625 C43.64705475 48.78027101 38.01043744 61.83461006 28.1171875 71.15625 C12.06751631 83.90952408 -4.69698628 87.6671161 -24.8828125 86.15625 C-35.19673888 84.9007318 -44.70328867 81.58733897 -51.3203125 73.21875 C-55.8463438 66.8552851 -57.42621626 61.14225752 -57.3203125 53.46875 C-57.31056396 52.67637939 -57.30081543 51.88400879 -57.29077148 51.06762695 C-56.8845437 37.51063515 -50.9427966 26.89808367 -41.94140625 17.02734375 C-30.37184876 6.23070033 -15.59206203 0.84509821 0 0 Z M-1.36083984 17.38647461 C-5.19594757 21.87255304 -7.51835593 26.18276669 -9.5078125 31.71875 C-9.79994629 32.50088867 -10.09208008 33.28302734 -10.39306641 34.08886719 C-14.54964974 45.41745871 -18.49262001 56.96009973 -17.8828125 69.15625 C-17.2228125 69.81625 -16.5628125 70.47625 -15.8828125 71.15625 C-13.37934526 71.16490344 -13.37934526 71.16490344 -10.8828125 70.15625 C-5.4986779 64.08118861 -3.04321458 55.75383737 -0.6328125 48.15625 C-0.12621094 46.63257813 -0.12621094 46.63257813 0.390625 45.078125 C3.26261344 36.25863294 5.78445216 27.49795518 5.1171875 18.15625 C4.4571875 17.49625 3.7971875 16.83625 3.1171875 16.15625 C0.18098156 15.83638263 0.18098156 15.83638263 -1.36083984 17.38647461 Z " fill="#8498DA" transform="translate(311.8828125,74.84375)"/>
<path d="M0 0 C5.31322397 4.07759049 8.0821492 8.64836681 9.6875 15.0625 C10.73437354 24.22653517 8.25728208 32.5629724 5.6875 41.25 C5.30075696 42.59662499 4.91533112 43.943629 4.53125 45.29101562 C3.5961647 48.55212559 2.64805288 51.80881873 1.6875 55.0625 C3.3890625 54.7840625 3.3890625 54.7840625 5.125 54.5 C6.300625 54.355625 7.47625 54.21125 8.6875 54.0625 C9.6875 55.0625 9.6875 55.0625 10 58.1875 C9.63865577 62.66816843 8.59595971 65.68992437 5.6875 69.0625 C-3.4232699 76.4734994 -11.62772297 78.25848537 -23.3125 77.0625 C-28.3244153 75.41924908 -32.85952183 73.1383255 -36.3125 69.0625 C-36.3125 68.4025 -36.3125 67.7425 -36.3125 67.0625 C-37.02535156 67.53300781 -37.73820312 68.00351563 -38.47265625 68.48828125 C-39.43042969 69.11089844 -40.38820313 69.73351562 -41.375 70.375 C-42.78458984 71.29732422 -42.78458984 71.29732422 -44.22265625 72.23828125 C-52.87406785 77.34600466 -60.50413314 78.08783224 -70.3125 77.0625 C-78.55241872 74.62181521 -83.00986148 70.19136908 -87.125 62.8125 C-89.49795388 55.31896143 -89.03327401 49.89818909 -85.6875 42.75 C-80.96919822 34.16027112 -74.69884661 30.51922798 -65.52734375 27.46875 C-54.1456851 25.38110891 -42.38839381 27.35398448 -31.3125 30.0625 C-30.66339846 28.48050369 -30.01835306 26.89684276 -29.375 25.3125 C-28.83552734 23.98992187 -28.83552734 23.98992187 -28.28515625 22.640625 C-26.37466869 17.57668208 -26.05136826 13.45922267 -26.3125 8.0625 C-28.4510485 5.9239515 -29.44525314 5.63594937 -32.3125 5.0625 C-32.32667969 5.71476562 -32.34085937 6.36703125 -32.35546875 7.0390625 C-32.60266617 11.56878816 -32.99793564 14.52184251 -35.3125 18.5 C-40.73926563 23.13536231 -45.91364151 24.38565216 -53 24 C-58.83132327 23.24152019 -62.33452137 21.29570167 -66.25 16.875 C-67.81824249 12.72376988 -67.5185018 9.30223303 -66.3125 5.0625 C-61.61716228 -2.47849694 -55.03702706 -4.67653971 -46.75 -6.6875 C-30.3888155 -9.88974253 -14.42799611 -8.43901659 0 0 Z M-47.3125 45.0625 C-48.93901522 48.31553044 -48.42703156 51.45475602 -48.3125 55.0625 C-47.9825 55.3925 -47.6525 55.7225 -47.3125 56.0625 C-43.89605657 56.20699841 -43.89605657 56.20699841 -40.3125 55.0625 C-37.19153414 50.8738353 -35.68967385 47.34293391 -35.3125 42.0625 C-36.40448142 40.76293665 -36.40448142 40.76293665 -39.0625 40.75 C-43.02537721 41.13104589 -44.4948945 42.32539752 -47.3125 45.0625 Z " fill="#8498D9" transform="translate(526.3125,82.9375)"/>
<path d="M0 0 C4.56523031 4.69504728 6.76989158 9.87119744 7.13671875 16.453125 C6.82736274 28.63198257 2.47221343 40.42820961 -1 52 C2.13349732 53.04449911 2.98968256 52.93423645 6 52 C6.82188181 55.73582641 7.21406908 58.31497894 6.0625 62 C2.0715803 67.80497411 -3.8788849 73.6080892 -11 75 C-19.5796546 75.775562 -27.65463811 75.96565501 -35 71 C-36.88517524 69.42679229 -38.38994997 67.86973552 -40 66 C-44.05765352 67.94880343 -47.82953716 70.3041815 -51.66015625 72.66015625 C-57.92333719 76.2465854 -65.9702203 75.79309441 -73 75 C-79.88135134 73.04517026 -85.1938095 69.0693308 -89 63 C-91.99513451 56.72990873 -92.18029804 49.87576939 -90.16015625 43.2421875 C-86.74828036 35.72916787 -81.50416985 30.14291713 -73.75 27.125 C-72.5125 26.75375 -71.275 26.3825 -70 26 C-69.41089844 25.81695312 -68.82179688 25.63390625 -68.21484375 25.4453125 C-56.61163891 23.11239301 -44.38033737 25.63379124 -33 28 C-32.29590698 25.48279191 -31.61163944 22.96274181 -30.9375 20.4375 C-30.73833984 19.73302734 -30.53917969 19.02855469 -30.33398438 18.30273438 C-29.06180145 13.45951166 -28.97444545 9.90847177 -30 5 C-31.98 4.34 -33.96 3.68 -36 3 C-35.95359375 3.58007812 -35.9071875 4.16015625 -35.859375 4.7578125 C-35.59950972 10.38203957 -36.06245492 13.64797649 -40 18 C-45.19872028 21.50611368 -50.97061605 22.40367234 -57.14453125 21.78515625 C-62.26445058 20.75725658 -65.28354547 18.6258093 -69 15 C-70.60819739 11.78360522 -70.46861231 8.48855833 -70 5 C-66.07786805 -2.5537356 -60.71028046 -5.34703592 -53.01171875 -8.16796875 C-35.99597688 -12.86881573 -14.06695367 -11.35132555 0 0 Z M-51 44 C-52.14958506 47.54051214 -52.14958506 47.54051214 -52 51 C-51.01 52.485 -51.01 52.485 -50 54 C-46.35065839 53.75118125 -44.4845643 53.44418394 -41.75 50.9375 C-39.55566498 47.25415193 -38.77280097 44.21527804 -38 40 C-39.08635269 38.71277975 -39.08635269 38.71277975 -41.6875 38.625 C-46.216587 39.13772683 -47.94887669 40.66505127 -51 44 Z " fill="#8498DA" transform="translate(146,85)"/>
<path d="M0 0 C1.83575345 1.58053895 3.38478172 3.18287943 5 5 C5.76183594 4.27683594 5.76183594 4.27683594 6.5390625 3.5390625 C12.35453083 -1.79722866 16.73607288 -4.50030657 24.91796875 -4.25 C32.61034235 -3.32633788 36.97987786 0.22484732 41.75 6.1875 C43.9530444 11.14434989 44.75497058 16.1722108 43.33984375 21.47265625 C41.03777703 27.05540104 38.05761462 31.21639147 32.75 34.3125 C27.59850111 35.60037472 22.90887239 35.56143306 17.8125 34.0625 C13.80441271 31.12323599 11.3339291 27.36163346 9 23 C9 22.34 9 21.68 9 21 C7.35 21.33 5.7 21.66 4 22 C-1.67737129 38.72369576 -1.67737129 38.72369576 -7 55.5625 C-7.31070435 56.54947876 -7.31070435 56.54947876 -7.62768555 57.55639648 C-8.8874421 61.79825448 -9.18168486 65.58846456 -9 70 C-8.38125 70.28875 -7.7625 70.5775 -7.125 70.875 C-5 72 -5 72 -3 74 C-3.125 76.5 -3.125 76.5 -4 79 C-6.95554382 80.9200961 -9.31479244 81.25212778 -12.796875 81.25878906 C-13.7446582 81.26509338 -14.69244141 81.27139771 -15.66894531 81.27789307 C-16.68569336 81.2738446 -17.70244141 81.26979614 -18.75 81.265625 C-20.32539551 81.26849518 -20.32539551 81.26849518 -21.93261719 81.27142334 C-24.15169515 81.27278347 -26.37078111 81.26909903 -28.58984375 81.26074219 C-31.98716092 81.25004044 -35.38394928 81.26064349 -38.78125 81.2734375 C-40.93750117 81.27211588 -43.09375201 81.26955342 -45.25 81.265625 C-46.26674805 81.26967346 -47.28349609 81.27372192 -48.33105469 81.27789307 C-49.75272949 81.26843658 -49.75272949 81.26843658 -51.203125 81.25878906 C-52.03489258 81.25719788 -52.86666016 81.25560669 -53.72363281 81.25396729 C-56.20978637 80.97659478 -57.84821532 80.24513991 -60 79 C-60.375 76.25 -60.375 76.25 -60 73 C-59.0925 72.401875 -58.185 71.80375 -57.25 71.1875 C-50.77414235 66.82874966 -49.14930783 57.83726642 -46.984375 50.6171875 C-46.72368225 49.75868195 -46.4629895 48.90017639 -46.19439697 48.01565552 C-45.65032287 46.2165939 -45.1093189 44.41660112 -44.57128906 42.61572266 C-43.7490218 39.87173564 -42.91018267 37.13317441 -42.0703125 34.39453125 C-41.54065393 32.63572133 -41.01197404 30.87661632 -40.484375 29.1171875 C-40.23443787 28.30659882 -39.98450073 27.49601013 -39.72698975 26.66085815 C-38.35415425 22.00347087 -37.5444931 17.90961307 -38 13 C-39.31328657 11.64691687 -40.64499081 10.31129922 -42 9 C-42.25 6.5625 -42.25 6.5625 -41 4 C-31.42950018 -5.24330324 -10.94926437 -7.75366459 0 0 Z " fill="#8498D9" transform="translate(406,79)"/>
<path d="M0 0 C0.33 0 0.66 0 1 0 C1.02578125 1.00160156 1.0515625 2.00320312 1.078125 3.03515625 C1.39735568 11.45354399 1.88769585 17.44709184 7.75 23.9375 C8.36875 24.4634375 8.36875 24.4634375 9 25 C8.01 25 7.02 25 6 25 C0.89923428 19.65041644 -1.29060702 15.3580595 -1.1875 7.8125 C-1.18105469 6.76707031 -1.17460938 5.72164062 -1.16796875 4.64453125 C-1 2 -1 2 0 0 Z " fill="#8994C5" transform="translate(56,129)"/>
<path d="M0 0 C0.76170685 2.25505318 1.10826447 3.60674522 0.46875 5.9296875 C-2.10128933 11.09049229 -5.10428259 14.86368103 -10 18 C-12.9375 18.875 -12.9375 18.875 -15 19 C-13.34059686 15.49681559 -12.57784756 14.21958207 -8.875 12.8125 C-7.451875 12.4103125 -7.451875 12.4103125 -6 12 C-5.67 11.34 -5.34 10.68 -5 10 C-4.34 10 -3.68 10 -3 10 C-3 8.35 -3 6.7 -3 5 C-2.34 5 -1.68 5 -1 5 C-0.67 3.35 -0.34 1.7 0 0 Z " fill="#8897C8" transform="translate(251,139)"/>
<path d="M0 0 C1.23151816 3.69455449 0.5965548 5.32335102 -0.375 9.0625 C-1.76314441 14.7164946 -2.62005895 20.19607293 -3 26 C-3.33 26 -3.66 26 -4 26 C-4.11627503 22.41694008 -4.1872736 18.83436583 -4.25 15.25 C-4.28351563 14.23421875 -4.31703125 13.2184375 -4.3515625 12.171875 C-4.45112665 4.60499931 -4.45112665 4.60499931 -1.984375 1.296875 C-1.32953125 0.86890625 -0.6746875 0.4409375 0 0 Z " fill="#8795C8" transform="translate(196,108)"/>
<path d="M0 0 C0.33 0 0.66 0 1 0 C1.35957762 3.77556505 1.11727831 5.76995408 -0.625 9.1875 C-4.44817909 13.71494892 -8.12563295 15.01959865 -13.875 15.6875 C-15.24908258 15.80314061 -16.62391448 15.91131893 -18 16 C-14.74049476 14.31204193 -11.44892201 13.02070635 -8 11.78125 C-7.34 11.5234375 -6.68 11.265625 -6 11 C-5.28328125 10.73445313 -4.5665625 10.46890625 -3.828125 10.1953125 C-1.80688169 9.12865415 -1.80688169 9.12865415 -1.171875 6.8359375 C-1.03265625 6.02382812 -0.8934375 5.21171875 -0.75 4.375 C-0.60046875 3.55773437 -0.4509375 2.74046875 -0.296875 1.8984375 C-0.19890625 1.27195312 -0.1009375 0.64546875 0 0 Z " fill="#919CC6" transform="translate(109,91)"/>
<path d="M0 0 C2.31 0.66 4.62 1.32 7 2 C7 2.66 7 3.32 7 4 C9.97 4.33 12.94 4.66 16 5 C16 5.66 16 6.32 16 7 C17.32 7.33 18.64 7.66 20 8 C12.74147872 7.64878123 7.16798705 5.92842032 1 2 C0.67 1.34 0.34 0.68 0 0 Z " fill="#8999CB" transform="translate(266,152)"/>
<path d="M0 0 C0.33 0.99 0.66 1.98 1 3 C-1.33333333 7.66666667 -1.33333333 7.66666667 -4 9 C-5.05352843 11.30965848 -6.05719096 13.6429774 -7 16 C-7.66 16 -8.32 16 -9 16 C-7.51637716 9.73581469 -3.75837844 5.08486495 0 0 Z " fill="#8794C8" transform="translate(170,89)"/>
<path d="M0 0 C1.41152344 -0.02126953 1.41152344 -0.02126953 2.8515625 -0.04296875 C5.375 0.1875 5.375 0.1875 8.375 2.1875 C5.83497384 3.06673982 4.36534085 3.18570295 1.6875 2.6875 C-2.56510731 2.04559701 -6.39383603 2.57633187 -10.625 3.1875 C-10.625 2.5275 -10.625 1.8675 -10.625 1.1875 C-7.03614625 0.37185142 -3.67914195 0.02533844 0 0 Z " fill="#848FC1" transform="translate(392.625,74.8125)"/>
<path d="M0 0 C-5.33931188 2.86034565 -10.07943568 4.73130765 -16 6 C-16 5.34 -16 4.68 -16 4 C-5.27102804 -1.75700935 -5.27102804 -1.75700935 0 0 Z " fill="#8695CC" transform="translate(330,153)"/>
<path d="M0 0 C0.33 0 0.66 0 1 0 C1.103125 1.03125 1.20625 2.0625 1.3125 3.125 C1.9931861 6.96159439 3.17777358 9.59322887 5 13 C5 13.66 5 14.32 5 15 C5.66 15 6.32 15 7 15 C7.33 16.65 7.66 18.3 8 20 C3.49255691 15.97984805 0.32241206 11.99510592 -0.1796875 5.7734375 C-0.18649103 3.84803851 -0.10119736 1.92274977 0 0 Z " fill="#8795C2" transform="translate(438,134)"/>
<path d="M0 0 C1.32 0 2.64 0 4 0 C4.268125 1.051875 4.53625 2.10375 4.8125 3.1875 C5.8676829 6.57519246 7.04726378 9.07089567 9 12 C5.5912072 10.6015209 4.12606165 9.14993067 2.25 6 C1.82203125 5.29875 1.3940625 4.5975 0.953125 3.875 C0 2 0 2 0 0 Z " fill="#8B98CB" transform="translate(257,140)"/>
<path d="M0 0 C0 0.66 0 1.32 0 2 C-2.31 2.33 -4.62 2.66 -7 3 C-7 3.66 -7 4.32 -7 5 C-8.65 5.66 -10.3 6.32 -12 7 C-12.66 6.34 -13.32 5.68 -14 5 C-5.4516129 0 -5.4516129 0 0 0 Z " fill="#8697C7" transform="translate(463,111)"/>
<path d="M0 0 C-0.66 0.66 -1.32 1.32 -2 2 C-4.125 1.625 -4.125 1.625 -6 1 C-7.65 2.98 -9.3 4.96 -11 7 C-13 4 -13 4 -13 2 C-11.35 1.67 -9.7 1.34 -8 1 C-8 0.34 -8 -0.32 -8 -1 C-4.37673261 -2.2077558 -3.35853631 -1.54311128 0 0 Z " fill="#8595C6" transform="translate(318,91)"/>
<path d="M0 0 C0.66 0.33 1.32 0.66 2 1 C0.61122646 4.35620271 -0.91677965 6.07298728 -4 8 C-4.66 8 -5.32 8 -6 8 C-6.33 8.99 -6.66 9.98 -7 11 C-7.33 10.01 -7.66 9.02 -8 8 C-5.46209694 4.54563194 -3.56854354 2.37902903 0 0 Z " fill="#8694C5" transform="translate(468,80)"/>
<path d="M0 0 C1.14139626 3.42418878 0.94974904 3.84776765 -0.5625 6.9375 C-2.65839549 10.88185888 -4.92633271 13.00650324 -9 15 C-9.99 14.67 -10.98 14.34 -12 14 C-11.071875 13.62875 -10.14375 13.2575 -9.1875 12.875 C-5.4739697 10.69057041 -4.57312496 8.93281241 -3 5 C-2.34 5 -1.68 5 -1 5 C-0.67 3.35 -0.34 1.7 0 0 Z " fill="#8896C3" transform="translate(448,98)"/>
<path d="M0 0 C0.33 0 0.66 0 1 0 C1.40579271 5.68109793 0.09152613 9.49016864 -3.5625 13.875 C-5 15 -5 15 -7 15 C-6.56880859 14.15308594 -6.56880859 14.15308594 -6.12890625 13.2890625 C-5.0036725 11.00744667 -3.96160814 8.70358049 -2.9375 6.375 C-1.99207928 4.22728953 -1.04942787 2.09885575 0 0 Z " fill="#8998C5" transform="translate(108,125)"/>
<path d="M0 0 C0.66 0.33 1.32 0.66 2 1 C0.9375 3.375 0.9375 3.375 -1 6 C-4.6875 7.3125 -4.6875 7.3125 -8 8 C-3.375 2.25 -3.375 2.25 0 0 Z " fill="#8694C8" transform="translate(181,79)"/>
<path d="M0 0 C5.01656959 1.4333056 7.01452882 3.90563952 10 8 C10 8.66 10 9.32 10 10 C9.34 10 8.68 10 8 10 C7.773125 9.195625 7.54625 8.39125 7.3125 7.5625 C6.879375 6.716875 6.44625 5.87125 6 5 C3.45224694 4.10613836 3.45224694 4.10613836 1 4 C0.67 2.68 0.34 1.36 0 0 Z " fill="#8696C5" transform="translate(140,82)"/>
<path d="M0 0 C2.23332348 4.46664695 2.04645297 5.54035147 1.125 10.25 C0.92132813 11.32765625 0.71765625 12.4053125 0.5078125 13.515625 C0.34023438 14.33546875 0.17265625 15.1553125 0 16 C-0.99 16.33 -1.98 16.66 -3 17 C-2.01 11.39 -1.02 5.78 0 0 Z " fill="#8896C6" transform="translate(501,91)"/>
<path d="M0 0 C3.37503669 1.1858237 5.64722731 2.27573689 8 5 C7.01 5.33 6.02 5.66 5 6 C4.34 5.34 3.68 4.68 3 4 C0.93125966 3.3574765 0.93125966 3.3574765 -1 3 C-1 4.98 -1 6.96 -1 9 C-1.33 9 -1.66 9 -2 9 C-2.125 5.625 -2.125 5.625 -2 2 C-1.34 1.34 -0.68 0.68 0 0 Z " fill="#8390C2" transform="translate(495,85)"/>
<path d="M0 0 C0.66 0 1.32 0 2 0 C-0.89066059 9.59453303 -0.89066059 9.59453303 -4 13 C-4 11.02 -4 9.04 -4 7 C-3.34 6.67 -2.68 6.34 -2 6 C-1.27306096 4.02111039 -0.60183749 2.02045442 0 0 Z " fill="#8797C9" transform="translate(352,122)"/>
<path d="M0 0 C0.66 0.33 1.32 0.66 2 1 C-2.18461538 6.78461538 -2.18461538 6.78461538 -6.3125 7.875 C-7.6428125 7.936875 -7.6428125 7.936875 -9 8 C-6.14723863 5.06799526 -3.34920216 2.35684596 0 0 Z " fill="#8895CB" transform="translate(282,83)"/>
<path d="M0 0 C5.73842251 -0.20413361 10.60539047 -0.27141454 16 2 C15.34 2.66 14.68 3.32 14 4 C11.9375 3.75 11.9375 3.75 9 3 C7.39663914 2.64220303 5.79241505 2.28825974 4.1875 1.9375 C2.79155082 1.62551788 1.39567835 1.31319144 0 1 C0 0.67 0 0.34 0 0 Z " fill="#7E92C0" transform="translate(244,42)"/>
<path d="M0 0 C0.99 0 1.98 0 3 0 C3.92470553 4.71599818 4.22923777 7.67265609 2 12 C1.01 11.67 0.02 11.34 -1 11 C-0.505 9.88625 -0.01 8.7725 0.5 7.625 C2.1274506 4.34584251 2.1274506 4.34584251 2 2 C1.34 2 0.68 2 0 2 C0 1.34 0 0.68 0 0 Z " fill="#8693C1" transform="translate(149,137)"/>
<path d="M0 0 C0.33 0 0.66 0 1 0 C1.98248524 4.0527516 2.08159574 7.83861737 2 12 C1.01 12 0.02 12 -1 12 C-2.09898702 8.70303895 -1.87124444 7.59505097 -1.0625 4.3125 C-0.86785156 3.50425781 -0.67320312 2.69601563 -0.47265625 1.86328125 C-0.31667969 1.24839844 -0.16070312 0.63351563 0 0 Z " fill="#8896C6" transform="translate(355,99)"/>
<path d="M0 0 C0.33 0 0.66 0 1 0 C1.74737188 5.97897503 -0.6768102 9.32379721 -4 14 C-4.33 13.34 -4.66 12.68 -5 12 C-4.26821134 9.92803369 -3.44100997 7.8891448 -2.5625 5.875 C-2.08941406 4.77929688 -1.61632812 3.68359375 -1.12890625 2.5546875 C-0.75636719 1.71164063 -0.38382812 0.86859375 0 0 Z " fill="#8995C7" transform="translate(309,127)"/>
<path d="M0 0 C1.40907283 2.81814566 0.50872691 4.17277204 -0.4375 7.125 C-0.72496094 8.03507812 -1.01242187 8.94515625 -1.30859375 9.8828125 C-1.53675781 10.58148438 -1.76492188 11.28015625 -2 12 C-2.33 12 -2.66 12 -3 12 C-3.08090971 10.37581255 -3.13914995 8.75048255 -3.1875 7.125 C-3.22230469 6.22007813 -3.25710938 5.31515625 -3.29296875 4.3828125 C-3.19628906 3.59648438 -3.09960938 2.81015625 -3 2 C-2.01 1.34 -1.02 0.68 0 0 Z " fill="#8894C8" transform="translate(407,104)"/>
<path d="M0 0 C0.66 0.99 1.32 1.98 2 3 C1.5390625 5.26171875 1.5390625 5.26171875 0.625 7.6875 C0.18027344 8.89986328 0.18027344 8.89986328 -0.2734375 10.13671875 C-0.51320313 10.75160156 -0.75296875 11.36648437 -1 12 C-1.66 12 -2.32 12 -3 12 C-2.01 8.04 -1.02 4.08 0 0 Z " fill="#8896C7" transform="translate(357,135)"/>
<path d="M0 0 C3.875 1.75 3.875 1.75 5 4 C5.99 4 6.98 4 8 4 C9.6875 6 9.6875 6 11 8 C5.95575532 7.55491959 3.55556591 5.39019075 0 2 C0 1.34 0 0.68 0 0 Z " fill="#8797C6" transform="translate(77,98)"/>
<path d="M0 0 C2.66315194 2.66315194 2.94426493 4.65344068 3.09765625 8.359375 C3.08605469 9.14828125 3.07445312 9.9371875 3.0625 10.75 C3.05347656 11.54921875 3.04445313 12.3484375 3.03515625 13.171875 C3.01775391 14.07679687 3.01775391 14.07679687 3 15 C2.67 15 2.34 15 2 15 C1.66048381 13.43883181 1.32867456 11.87598662 1 10.3125 C0.814375 9.44238281 0.62875 8.57226562 0.4375 7.67578125 C0.01027953 5.06287036 -0.07616201 2.64186962 0 0 Z " fill="#8695C1" transform="translate(533,92)"/>
<path d="M0 0 C0 0.66 0 1.32 0 2 C-1.63604196 3.37073786 -3.30678061 4.70055256 -5 6 C-6.0173873 6.98230498 -7.02596117 7.97469597 -8 9 C-5.83333333 0 -5.83333333 0 0 0 Z " fill="#8A96C3" transform="translate(209,90)"/>
<path d="M0 0 C1.32 0 2.64 0 4 0 C3.34 3.3 2.68 6.6 2 10 C1.34 10 0.68 10 0 10 C0 6.7 0 3.4 0 0 Z " fill="#8591C6" transform="translate(394,137)"/>
<path d="M0 0 C0 2.31 0 4.62 0 7 C-2 3.25 -2 3.25 -2 1 C-3.65 1.33 -5.3 1.66 -7 2 C-5.20949654 -1.58100692 -3.4370813 -1.03112439 0 0 Z " fill="#848FC4" transform="translate(536,138)"/>
<path d="M0 0 C2 3.75 2 3.75 2 6 C1.34 6 0.68 6 0 6 C-0.66 7.98 -1.32 9.96 -2 12 C-3.15957207 8.52128379 -2.77456651 7.65780355 -1.5625 4.3125 C-1.13130859 3.10013672 -1.13130859 3.10013672 -0.69140625 1.86328125 C-0.46324219 1.24839844 -0.23507813 0.63351563 0 0 Z " fill="#8997CB" transform="translate(210,110)"/>
<path d="M0 0 C-2.39509338 2.89932357 -4.31245243 3.50168276 -8 4 C-7.67 3.01 -7.34 2.02 -7 1 C-4.53721199 -0.231394 -2.7204945 -0.07159196 0 0 Z " fill="#8798CC" transform="translate(143,155)"/>
<path d="M0 0 C0 3 0 3 -2 5.1875 C-2.66 5.785625 -3.32 6.38375 -4 7 C-4.99 6.67 -5.98 6.34 -7 6 C-4.69 4.02 -2.38 2.04 0 0 Z " fill="#8696C9" transform="translate(418,78)"/>
<path d="M0 0 C0.99 0.33 1.98 0.66 3 1 C0.6875 3.5 0.6875 3.5 -2 6 C-2.99 6 -3.98 6 -5 6 C-4.34 5.01 -3.68 4.02 -3 3 C-2.01 3 -1.02 3 0 3 C0 2.01 0 1.02 0 0 Z " fill="#8C99CC" transform="translate(101,149)"/>
<path d="M0 0 C-3.6441774 2.4294516 -5.71241272 2.16179575 -10 2 C-6.80505194 -1.19494806 -4.22040044 -1.35655728 0 0 Z " fill="#8797C0" transform="translate(235,45)"/>
<path d="M0 0 C0.99 0 1.98 0 3 0 C3.33 1.65 3.66 3.3 4 5 C2.02 5.99 2.02 5.99 0 7 C0 4.69 0 2.38 0 0 Z " fill="#8696CA" transform="translate(214,91)"/>
<path d="" fill="#00FFFF" transform="translate(0,0)"/>
<path d="" fill="#FFFFFF" transform="translate(0,0)"/>
</svg>
